Simulation
nRows=44
nColumns=15
endheader
time  TH_x TH_y TH_z SC_y  SC_z  SC_x  AC_y  AC_z  AC_x  GH_y  GH_z  GH_yy  EL_x  PS_y
1.55  0.000000  0.000000  0.000000  -33.640751487344836  5.000476080402811  53.55885715080534  55.84309499703462  -15.485261665023181  -23.958486184823457  20.71343601956559  54.42534367160146  -19.921817158772612  18.274324391974517  0.000000
1.581  0.000000  0.000000  0.000000  -33.72680080338663  5.092648119128098  53.68719918723502  55.925335601299615  -15.431008713727362  -23.744147011179564  20.61981078579361  54.90033702509242  -19.991239323531904  18.2243117765059  0.000000
1.612  0.000000  0.000000  0.000000  -33.79953012897215  5.161268178521565  53.78280124203021  55.99943660940444  -15.38175833427138  -23.56401666274784  20.559685460082214  55.284517139326354  -20.075389051688774  18.17912760940345  0.000000
1.643  0.000000  0.000000  0.000000  -33.858345643808704  5.206214812165751  53.84546091853962  56.06457729636542  -15.338674222926233  -23.420304562516705  20.531968858189206  55.578069900366074  -20.174736236514256  18.139608589386473  0.000000
1.674  0.000000  0.000000  0.000000  -33.90305673239053  5.227716395212632  53.874662004185865  56.12098509125775  -15.303112399893562  -23.313802923342312  20.53475153806926  55.78134334521104  -20.289780765487905  18.105941630026088  0.000000
1.705  0.000000  0.000000  0.000000  -33.93359479181232  5.2254192290617505  53.876235105475715  56.167474729603015  -15.278562415708189  -23.24856661547757  20.568799151880448  55.89305594997568  -20.42144870973243  18.077112945066954  0.000000
1.736  0.000000  0.000000  0.000000  -33.9499637135437  5.19939358525393  53.850722603088  56.204649026459656  -15.265298926497799  -23.22466894968181  20.632614231766023  55.91228524070955  -20.569375618511106  18.053415456413372  0.000000
1.767  0.000000  0.000000  0.000000  -33.95223365346497  5.149894905984404  53.79378631224964  56.23277143693632  -15.258193383273047  -23.23868177268075  20.726029200619067  55.83715830279043  -20.732364204497216  18.03538196915161  0.000000
1.798  0.000000  0.000000  0.000000  -33.94088517578052  5.077510737870513  53.7031585244186  56.252956130407426  -15.2562648733826  -23.288052084405702  20.847503781824326  55.66816094916469  -20.909089711374705  18.023088882802014  0.000000
1.829  0.000000  0.000000  0.000000  -33.91811051171305  4.982238147586097  53.57928150489982  56.26644885480815  -15.262309303830625  -23.370581096606404  20.99576379393918  55.40754092825494  -21.097949152823013  18.016871909154403  0.000000
1.8599999999999999  0.000000  0.000000  0.000000  -33.88561701423174  4.863526864059915  53.42290127841721  56.27532557711402  -15.278344145912623  -23.484417215552046  21.169528635603495  55.05714949720031  -21.298629734104615  18.016358493733172  0.000000
1.891  0.000000  0.000000  0.000000  -33.84459116484037  4.721323382071341  53.232670245568926  56.28127558216198  -15.303856188562106  -23.62523894350636  21.366233244458872  54.61787363406259  -21.50747011423781  18.021479610801254  0.000000
1.922  0.000000  0.000000  0.000000  -33.79697220581412  4.556474752846467  53.00376743885388  56.28693386060863  -15.336672504070396  -23.785867445835695  21.58288582694942  54.09117459294537  -21.721601304084984  18.03244684479993  0.000000
1.953  0.000000  0.000000  0.000000  -33.744687027245135  4.370972292686046  52.732990021834226  56.293571399308966  -15.377056488708538  -23.95909671314735  21.816370302430993  53.47941478856301  -21.937814601017344  18.04894841176899  0.000000
1.984  0.000000  0.000000  0.000000  -33.689941812735015  4.167599076961224  52.42059275544758  56.302095147093695  -15.429665742783293  -24.139417444546893  22.062911756815218  52.78622005199788  -22.15266482194056  18.071037604210357  0.000000
2.015  0.000000  0.000000  0.000000  -33.635338070704236  3.948838425264374  52.065573611156196  56.313247878559366  -15.497758292582711  -24.319936358285524  22.319205165053017  52.015160967209354  -22.36214270778702  18.098930486761542  0.000000
2.046  0.000000  0.000000  0.000000  -33.582545997411856  3.716380005679623  51.663993455019266  56.32821021644737  -15.581008371972539  -24.493357475775543  22.582366531458316  51.170009155508644  -22.562735616107744  18.132600541765605  0.000000
2.077  0.000000  0.000000  0.000000  -33.532987054096154  3.471211990212248  51.214281901156696  56.34709638287697  -15.679295920017665  -24.654277378393704  22.850070375910956  50.2541592748178  -22.749711198073307  18.17192468540958  0.000000
2.108  0.000000  0.000000  0.000000  -33.48704740711701  3.2146615933704754  50.71584154990412  56.36868392389188  -15.792581614297795  -24.799601360247763  23.12075833216996  49.27133644121206  -22.91977038919369  18.21662135457697  0.000000
2.139  0.000000  0.000000  0.000000  -33.444147322887616  2.948501257737778  50.16827981639472  56.38995499655846  -15.919752405476157  -24.926983106709642  23.393194477443544  48.224726017623475  -23.06943674804749  18.266657903304463  0.000000
2.17  0.000000  0.000000  0.000000  -33.402800286830946  2.67492158175174  49.572453510244465  56.40755517906435  -16.06030242736107  -25.035162012497874  23.665591104526214  47.11730821472545  -23.19555992145064  18.322101739918786  0.000000
2.201  0.000000  0.000000  0.000000  -33.36148250236359  2.396006017356194  48.9296730251338  56.417517365424544  -16.21273556973747  -25.123346191919286  23.937183480005487  45.95159107303164  -23.295181573429208  18.382907609329784  0.000000
2.232  0.000000  0.000000  0.000000  -33.318775811083135  2.113559024597884  48.24127923518697  56.41644642521144  -16.37504005452857  -25.19115823019463  24.208182440152633  44.73030688516224  -23.366948593271168  18.44887132182205  0.000000
2.263  0.000000  0.000000  0.000000  -33.27321370831463  1.829095653979538  47.50979848082476  56.401085685559586  -16.545267532230095  -25.23865248634999  24.478340349575635  43.45576740861259  -23.408362967837302  18.519786374291478  0.000000
2.294  0.000000  0.000000  0.000000  -33.22276093437025  1.5440630878724824  46.738155450189936  56.36873504220372  -16.72150699067753  -25.266229329598076  24.746659157350646  42.130179523830044  -23.417202387552493  18.595650488988394  0.000000
2.325  0.000000  0.000000  0.000000  -33.16544288080284  1.2599590042511766  45.92960913221084  56.31643102115559  -16.90132263262491  -25.274747549351876  25.01237949196567  40.75552715617884  -23.391338191799612  18.676427773974737  0.000000
2.356  0.000000  0.000000  0.000000  -33.099530509376706  0.9783930943419306  45.08762194001688  56.24202066822287  -17.08218575966813  -25.26522203891894  25.27510290451544  39.333728474551826  -23.330023548364558  18.76206590415699  0.000000
2.387  0.000000  0.000000  0.000000  -33.02344725216046  0.7009971840554643  44.21626579383864  56.143468180916514  -17.26197202766469  -25.238911449263004  25.533856654988224  37.866813511301345  -23.231709572237904  18.852444921982634  0.000000
2.418  0.000000  0.000000  0.000000  -32.9352102976882  0.428875168316999  43.31991241446993  56.02003956983749  -17.43841726315238  -25.197155595793525  25.787304733121477  36.3565539742468  -23.095606665207523  18.947556685092753  0.000000
2.449  0.000000  0.000000  0.000000  -32.83320244786189  0.16270002990837856  42.40317252060658  55.87093793984632  -17.609211539125013  -25.14184560902324  26.034318356312728  34.80532224046488  -22.921022360965093  19.0472273068315  0.000000
2.48  0.000000  0.000000  0.000000  -32.71673471012529  -0.0968173828412693  41.47108635218466  55.69703635313464  -17.772203113456907  -25.07455145523791  26.273523875189625  33.21524156374934  -22.708140384619668  19.15145634852236  0.000000
2.511  0.000000  0.000000  0.000000  -32.58602563588504  -0.3489743940419933  40.5293992403848  55.499408068233905  -17.925886637989006  -24.997291880328778  26.503237590137267  31.589056095339775  -22.45685844276223  19.259821532547832  0.000000
2.542  0.000000  0.000000  0.000000  -32.44126497685926  -0.5933811222683251  39.58413292757292  55.28018745775038  -18.069025580398357  -24.911992616151228  26.721357987349446  29.929592868974048  -22.16747999338684  19.37219372935844  0.000000
2.573  0.000000  0.000000  0.000000  -32.2826834594863  -0.8294814683819399  38.6414976537305  55.041010736854275  -18.20103840621919  -24.821148972944197  26.92621161058714  28.240713655237858  -21.840165684525207  19.487904503469583  0.000000
2.604  0.000000  0.000000  0.000000  -32.110652775863656  -1.0565515916432748  37.7077516556505  54.78405703332847  -18.321399756121764  -24.726946898844645  27.116385169286648  26.52615872235331  -21.475523170538665  19.607279134476023  0.000000
2.635  0.000000  0.000000  0.000000  -31.92585565167033  -1.2735960535733952  36.78929723072642  54.51142045937083  -18.430188810912945  -24.632073773193213  27.29141246396622  24.790753751123443  -21.074544562807557  19.72953195548484  0.000000
2.666  0.000000  0.000000  0.000000  -31.729003626526428  -1.4797268265259622  35.89294373802673  54.22517804129576  -18.526946641836275  -24.539253414962307  27.45128572215665  23.038523357122617  -20.638898039681624  19.855499475092255  0.000000
2.697  0.000000  0.000000  0.000000  -31.521107977590386  -1.6736096212553393  35.02543514386016  53.92803169122407  -18.612071606997404  -24.45162279500714  27.597846010209498  21.27479366106023  -20.17170662047329  19.98388006939774  0.000000
2.7279999999999998  0.000000  0.000000  0.000000  -31.303339855380674  -1.8539515880012252  34.1938903467639  53.62159467739942  -18.68472885642542  -24.37225438831326  27.73398642697317  19.503209717571917  -19.677787014263025  20.115984137858053  0.000000
2.759  0.000000  0.000000  0.000000  -31.076943725875502  -2.0189769424752244  33.40496240145092  53.30964498533326  -18.745473521772663  -24.30422509600843  27.86582104534682  17.729451828201384  -19.164333522703313  20.249706956353606  0.000000
2.79  0.000000  0.000000  0.000000  -30.843683104723507  -2.1670603622859765  32.66556870724868  52.993301766082986  -18.793200757966144  -24.24989502967568  28.000283855811663  15.957425982117963  -18.641647171278194  20.3871631749637  0.000000
2.821  0.000000  0.000000  0.000000  -30.604391899853713  -2.295977418271265  31.981653892508167  52.67847415031139  -18.82906545600814  -24.21080869218071  28.148404273466724  14.194480841472648  -18.12160130730908  20.525778536281162  0.000000
2.852  0.000000  0.000000  0.000000  -30.36166047125208  -2.4037441705816134  31.358955967372953  52.36596369276223  -18.852415493887122  -24.186521897162358  28.31861599998592  12.447272487209725  -17.620164764214618  20.668338369765728  0.000000
2.883  0.000000  0.000000  0.000000  -30.11538334269849  -2.48698628659634  30.800810973717017  52.06458748117456  -18.864813514108384  -24.173726220311895  28.522880739534216  10.727836216138686  -17.15027151003344  20.809619710490846  0.000000
